<svg width="400" height="100" viewBox="0 0 400 100" xmlns="http://www.w3.org/2000/svg">
  <!-- Left Angel Wing - Vertical Design -->
  <g transform="translate(20, 10)">
    <!-- Main wing structure - vertical orientation -->
    <path d="M25 10 Q15 15, 8 25 Q5 35, 8 45 Q12 55, 20 65 Q25 70, 30 75 Q35 70, 40 60 Q42 50, 40 40 Q38 30, 35 20 Q30 12, 25 10 Z" 
          fill="rgba(255, 255, 255, 0.98)" 
          stroke="rgba(255, 215, 0, 1.2)" 
          stroke-width="2"/>
    
    <!-- Secondary feather layer -->
    <path d="M25 15 Q18 18, 14 28 Q12 35, 14 42 Q16 50, 22 58 Q25 62, 28 65 Q31 62, 34 55 Q36 48, 34 40 Q32 32, 30 25 Q28 18, 25 15 Z" 
          fill="rgba(255, 255, 255, 0.92)" 
          stroke="rgba(255, 215, 0, 0.9)" 
          stroke-width="1.5"/>
    
    <!-- Inner feather details -->
    <path d="M25 20 Q21 22, 19 30 Q18 35, 19 40 Q20 45, 23 50 Q25 52, 27 54 Q29 52, 30 48 Q31 44, 30 38 Q29 32, 28 27 Q27 22, 25 20 Z" 
          fill="rgba(255, 255, 255, 0.88)" 
          stroke="rgba(255, 215, 0, 0.7)" 
          stroke-width="1"/>
    
    <!-- Feather detail lines - vertical flow -->
    <path d="M20 25 Q22 30, 24 35 Q26 40, 28 45 Q30 50, 32 55" 
          fill="none" 
          stroke="rgba(255, 215, 0, 0.6)" 
          stroke-width="0.8"/>
    <path d="M18 28 Q20 33, 22 38 Q24 43, 26 48 Q28 53, 30 58" 
          fill="none" 
          stroke="rgba(255, 215, 0, 0.5)" 
          stroke-width="0.6"/>
    <path d="M16 32 Q18 36, 20 41 Q22 46, 24 51 Q26 56, 28 61" 
          fill="none" 
          stroke="rgba(255, 215, 0, 0.4)" 
          stroke-width="0.5"/>
    
    <!-- Wing tip feathers - vertical -->
    <ellipse cx="25" cy="75" rx="5" ry="12" 
             fill="rgba(255, 255, 255, 0.9)" 
             stroke="rgba(255, 215, 0, 0.8)" 
             stroke-width="1"/>
    <ellipse cx="30" cy="70" rx="4" ry="10" 
             fill="rgba(255, 255, 255, 0.85)" 
             stroke="rgba(255, 215, 0, 0.7)" 
             stroke-width="0.8"/>
    <ellipse cx="20" cy="70" rx="4" ry="10" 
             fill="rgba(255, 255, 255, 0.85)" 
             stroke="rgba(255, 215, 0, 0.7)" 
             stroke-width="0.8"/>
  </g>

  <!-- Main Text "Elfi's Angels" - Centered -->
  <text x="200" y="55" 
        font-family="'Poppins', sans-serif" 
        font-size="36" 
        font-weight="300" 
        text-anchor="middle" 
        fill="rgba(255, 255, 255, 0.98)"
        letter-spacing="5px"
        style="text-shadow: 0 3px 6px rgba(0,0,0,0.4);">
    Elfi's Angels
  </text>

  <!-- Right Angel Wing - Vertical Design -->
  <g transform="translate(330, 10)">
    <!-- Main wing structure - vertical orientation -->
    <path d="M25 10 Q35 15, 42 25 Q45 35, 42 45 Q38 55, 30 65 Q25 70, 20 75 Q15 70, 10 60 Q8 50, 10 40 Q12 30, 15 20 Q20 12, 25 10 Z" 
          fill="rgba(255, 255, 255, 0.98)" 
          stroke="rgba(255, 215, 0, 1.2)" 
          stroke-width="2"/>
    
    <!-- Secondary feather layer -->
    <path d="M25 15 Q32 18, 36 28 Q38 35, 36 42 Q34 50, 28 58 Q25 62, 22 65 Q19 62, 16 55 Q14 48, 16 40 Q18 32, 20 25 Q22 18, 25 15 Z" 
          fill="rgba(255, 255, 255, 0.92)" 
          stroke="rgba(255, 215, 0, 0.9)" 
          stroke-width="1.5"/>
    
    <!-- Inner feather details -->
    <path d="M25 20 Q29 22, 31 30 Q32 35, 31 40 Q30 45, 27 50 Q25 52, 23 54 Q21 52, 20 48 Q19 44, 20 38 Q21 32, 22 27 Q23 22, 25 20 Z" 
          fill="rgba(255, 255, 255, 0.88)" 
          stroke="rgba(255, 215, 0, 0.7)" 
          stroke-width="1"/>
    
    <!-- Feather detail lines - vertical flow -->
    <path d="M30 25 Q28 30, 26 35 Q24 40, 22 45 Q20 50, 18 55" 
          fill="none" 
          stroke="rgba(255, 215, 0, 0.6)" 
          stroke-width="0.8"/>
    <path d="M32 28 Q30 33, 28 38 Q26 43, 24 48 Q22 53, 20 58" 
          fill="none" 
          stroke="rgba(255, 215, 0, 0.5)" 
          stroke-width="0.6"/>
    <path d="M34 32 Q32 36, 30 41 Q28 46, 26 51 Q24 56, 22 61" 
          fill="none" 
          stroke="rgba(255, 215, 0, 0.4)" 
          stroke-width="0.5"/>
    
    <!-- Wing tip feathers - vertical -->
    <ellipse cx="25" cy="75" rx="5" ry="12" 
             fill="rgba(255, 255, 255, 0.9)" 
             stroke="rgba(255, 215, 0, 0.8)" 
             stroke-width="1"/>
    <ellipse cx="20" cy="70" rx="4" ry="10" 
             fill="rgba(255, 255, 255, 0.85)" 
             stroke="rgba(255, 215, 0, 0.7)" 
             stroke-width="0.8"/>
    <ellipse cx="30" cy="70" rx="4" ry="10" 
             fill="rgba(255, 255, 255, 0.85)" 
             stroke="rgba(255, 215, 0, 0.7)" 
             stroke-width="0.8"/>
  </g>

  <!-- Divine halo effect above text -->
  <circle cx="200" cy="25" r="4" fill="rgba(255, 215, 0, 0.9)" opacity="0.8"/>
  <circle cx="195" cy="27" r="2" fill="rgba(255, 215, 0, 0.7)" opacity="0.7"/>
  <circle cx="205" cy="27" r="2" fill="rgba(255, 215, 0, 0.7)" opacity="0.7"/>
  
  <!-- Soft divine glow around halo -->
  <circle cx="200" cy="25" r="12" fill="none" stroke="rgba(255, 215, 0, 0.15)" stroke-width="3" opacity="0.6"/>
  <circle cx="200" cy="25" r="8" fill="none" stroke="rgba(255, 215, 0, 0.25)" stroke-width="2" opacity="0.7"/>
  
  <!-- Decorative sparkles below text -->
  <circle cx="200" cy="75" r="2" fill="rgba(255, 215, 0, 0.7)"/>
  <circle cx="190" cy="78" r="1" fill="rgba(255, 215, 0, 0.5)"/>
  <circle cx="210" cy="78" r="1" fill="rgba(255, 215, 0, 0.5)"/>
  <circle cx="200" cy="82" r="0.8" fill="rgba(255, 215, 0, 0.4)"/>
  <circle cx="185" cy="80" r="0.6" fill="rgba(255, 215, 0, 0.3)"/>
  <circle cx="215" cy="80" r="0.6" fill="rgba(255, 215, 0, 0.3)"/>
</svg>
